<mxfile host="Electron" agent="Mozilla/5.0 (Windows NT 10.0; Win64; x64) AppleWebKit/537.36 (KHTML, like Gecko) draw.io/24.7.17 Chrome/128.0.6613.36 Electron/32.0.1 Safari/537.36" version="24.7.17">
  <diagram name="Pagina-1" id="OyTJvLOr1P731KIHwKXK">
    <mxGraphModel dx="811" dy="470" grid="1" gridSize="10" guides="1" tooltips="1" connect="1" arrows="1" fold="1" page="1" pageScale="1" pageWidth="827" pageHeight="1169" math="0" shadow="0">
      <root>
        <mxCell id="0" />
        <mxCell id="1" parent="0" />
        <mxCell id="454eIIF7kf_GoojwbF-6-18" style="edgeStyle=orthogonalEdgeStyle;rounded=0;orthogonalLoop=1;jettySize=auto;html=1;entryX=0.5;entryY=0;entryDx=0;entryDy=0;fontFamily=Times New Roman;fontSize=13;" edge="1" parent="1" source="454eIIF7kf_GoojwbF-6-8" target="454eIIF7kf_GoojwbF-6-14">
          <mxGeometry relative="1" as="geometry" />
        </mxCell>
        <mxCell id="454eIIF7kf_GoojwbF-6-8" value="" style="rounded=0;whiteSpace=wrap;html=1;fillColor=none;strokeColor=#00e1ff;fontFamily=Times New Roman;fontSize=13;" vertex="1" parent="1">
          <mxGeometry x="270" y="310" width="460" height="60" as="geometry" />
        </mxCell>
        <mxCell id="454eIIF7kf_GoojwbF-6-9" value="informazioni sulla piattaforma" style="rounded=0;whiteSpace=wrap;html=1;fillColor=none;strokeColor=#00e1ff;fontFamily=Times New Roman;fontSize=13;" vertex="1" parent="1">
          <mxGeometry x="280" y="320" width="120" height="40" as="geometry" />
        </mxCell>
        <mxCell id="454eIIF7kf_GoojwbF-6-10" value="specifica dei requisiti" style="rounded=0;whiteSpace=wrap;html=1;fillColor=none;strokeColor=#00e1ff;fontFamily=Times New Roman;fontSize=13;" vertex="1" parent="1">
          <mxGeometry x="440" y="320" width="120" height="40" as="geometry" />
        </mxCell>
        <mxCell id="454eIIF7kf_GoojwbF-6-11" value="descrizione dei dati" style="rounded=0;whiteSpace=wrap;html=1;fillColor=none;strokeColor=#00e1ff;fontFamily=Times New Roman;fontSize=13;" vertex="1" parent="1">
          <mxGeometry x="600" y="320" width="120" height="40" as="geometry" />
        </mxCell>
        <mxCell id="454eIIF7kf_GoojwbF-6-12" value="input della progettazione" style="text;html=1;align=center;verticalAlign=middle;whiteSpace=wrap;rounded=0;fontFamily=Times New Roman;fontSize=13;" vertex="1" parent="1">
          <mxGeometry x="590" y="290" width="140" height="20" as="geometry" />
        </mxCell>
        <mxCell id="454eIIF7kf_GoojwbF-6-13" value="progettazione delle attivitÃ " style="text;html=1;align=center;verticalAlign=middle;whiteSpace=wrap;rounded=0;fontFamily=Times New Roman;fontSize=13;" vertex="1" parent="1">
          <mxGeometry x="580" y="390" width="150" height="20" as="geometry" />
        </mxCell>
        <mxCell id="454eIIF7kf_GoojwbF-6-38" style="edgeStyle=orthogonalEdgeStyle;rounded=0;orthogonalLoop=1;jettySize=auto;html=1;entryX=0.5;entryY=0;entryDx=0;entryDy=0;fontFamily=Times New Roman;fontSize=13;" edge="1" parent="1" source="454eIIF7kf_GoojwbF-6-14" target="454eIIF7kf_GoojwbF-6-31">
          <mxGeometry relative="1" as="geometry" />
        </mxCell>
        <mxCell id="454eIIF7kf_GoojwbF-6-14" value="" style="rounded=0;whiteSpace=wrap;html=1;fillColor=none;strokeColor=#00e1ff;fontFamily=Times New Roman;fontSize=13;" vertex="1" parent="1">
          <mxGeometry x="270" y="410" width="460" height="120" as="geometry" />
        </mxCell>
        <mxCell id="454eIIF7kf_GoojwbF-6-21" style="edgeStyle=orthogonalEdgeStyle;rounded=0;orthogonalLoop=1;jettySize=auto;html=1;entryX=0;entryY=0.5;entryDx=0;entryDy=0;fontFamily=Times New Roman;fontSize=13;" edge="1" parent="1" source="454eIIF7kf_GoojwbF-6-15" target="454eIIF7kf_GoojwbF-6-16">
          <mxGeometry relative="1" as="geometry" />
        </mxCell>
        <mxCell id="454eIIF7kf_GoojwbF-6-24" style="edgeStyle=orthogonalEdgeStyle;rounded=0;orthogonalLoop=1;jettySize=auto;html=1;entryX=0;entryY=0.5;entryDx=0;entryDy=0;fontFamily=Times New Roman;fontSize=13;" edge="1" parent="1" source="454eIIF7kf_GoojwbF-6-15" target="454eIIF7kf_GoojwbF-6-20">
          <mxGeometry relative="1" as="geometry">
            <Array as="points">
              <mxPoint x="340" y="500" />
            </Array>
          </mxGeometry>
        </mxCell>
        <mxCell id="454eIIF7kf_GoojwbF-6-15" value="progettazione architetturale" style="rounded=0;whiteSpace=wrap;html=1;fillColor=none;strokeColor=#00e1ff;fontFamily=Times New Roman;fontSize=13;" vertex="1" parent="1">
          <mxGeometry x="280" y="420" width="120" height="40" as="geometry" />
        </mxCell>
        <mxCell id="454eIIF7kf_GoojwbF-6-22" style="edgeStyle=orthogonalEdgeStyle;rounded=0;orthogonalLoop=1;jettySize=auto;html=1;entryX=0;entryY=0.5;entryDx=0;entryDy=0;fontFamily=Times New Roman;fontSize=13;" edge="1" parent="1" source="454eIIF7kf_GoojwbF-6-16" target="454eIIF7kf_GoojwbF-6-17">
          <mxGeometry relative="1" as="geometry" />
        </mxCell>
        <mxCell id="454eIIF7kf_GoojwbF-6-16" value="progettazione interfaccia" style="rounded=0;whiteSpace=wrap;html=1;fillColor=none;strokeColor=#00e1ff;fontFamily=Times New Roman;fontSize=13;" vertex="1" parent="1">
          <mxGeometry x="440" y="420" width="120" height="40" as="geometry" />
        </mxCell>
        <mxCell id="454eIIF7kf_GoojwbF-6-23" style="edgeStyle=orthogonalEdgeStyle;rounded=0;orthogonalLoop=1;jettySize=auto;html=1;entryX=1;entryY=0.5;entryDx=0;entryDy=0;fontFamily=Times New Roman;fontSize=13;" edge="1" parent="1" source="454eIIF7kf_GoojwbF-6-17" target="454eIIF7kf_GoojwbF-6-20">
          <mxGeometry relative="1" as="geometry">
            <Array as="points">
              <mxPoint x="660" y="500" />
            </Array>
          </mxGeometry>
        </mxCell>
        <mxCell id="454eIIF7kf_GoojwbF-6-17" value="progettazione delle componenti" style="rounded=0;whiteSpace=wrap;html=1;fillColor=none;strokeColor=#00e1ff;fontFamily=Times New Roman;fontSize=13;" vertex="1" parent="1">
          <mxGeometry x="600" y="420" width="120" height="40" as="geometry" />
        </mxCell>
        <mxCell id="454eIIF7kf_GoojwbF-6-20" value="progettazione del database" style="rounded=0;whiteSpace=wrap;html=1;fillColor=none;strokeColor=#00e1ff;perimeterSpacing=0;fontFamily=Times New Roman;fontSize=13;" vertex="1" parent="1">
          <mxGeometry x="440" y="480" width="120" height="40" as="geometry" />
        </mxCell>
        <mxCell id="454eIIF7kf_GoojwbF-6-31" value="" style="rounded=0;whiteSpace=wrap;html=1;fillColor=none;strokeColor=#00e1ff;fontFamily=Times New Roman;fontSize=13;" vertex="1" parent="1">
          <mxGeometry x="235" y="580" width="530" height="60" as="geometry" />
        </mxCell>
        <mxCell id="454eIIF7kf_GoojwbF-6-32" value="architettura del sistema" style="rounded=0;whiteSpace=wrap;html=1;fillColor=none;strokeColor=#00e1ff;fontFamily=Times New Roman;fontSize=13;" vertex="1" parent="1">
          <mxGeometry x="245" y="590" width="120" height="40" as="geometry" />
        </mxCell>
        <mxCell id="454eIIF7kf_GoojwbF-6-33" value="specifica del database" style="rounded=0;whiteSpace=wrap;html=1;fillColor=none;strokeColor=#00e1ff;fontFamily=Times New Roman;fontSize=13;" vertex="1" parent="1">
          <mxGeometry x="375" y="590" width="120" height="40" as="geometry" />
        </mxCell>
        <mxCell id="454eIIF7kf_GoojwbF-6-34" value="specifica dell&#39;interfaccia" style="rounded=0;whiteSpace=wrap;html=1;fillColor=none;strokeColor=#00e1ff;fontFamily=Times New Roman;fontSize=13;" vertex="1" parent="1">
          <mxGeometry x="505" y="590" width="120" height="40" as="geometry" />
        </mxCell>
        <mxCell id="454eIIF7kf_GoojwbF-6-35" value="output della progettazione" style="text;html=1;align=center;verticalAlign=middle;whiteSpace=wrap;rounded=0;fontFamily=Times New Roman;fontSize=13;" vertex="1" parent="1">
          <mxGeometry x="615" y="560" width="150" height="20" as="geometry" />
        </mxCell>
        <mxCell id="454eIIF7kf_GoojwbF-6-37" value="specifica delle componenti" style="rounded=0;whiteSpace=wrap;html=1;fillColor=none;strokeColor=#00e1ff;fontFamily=Times New Roman;fontSize=13;" vertex="1" parent="1">
          <mxGeometry x="635" y="590" width="120" height="40" as="geometry" />
        </mxCell>
      </root>
    </mxGraphModel>
  </diagram>
</mxfile>
